<svg xmlns="http://www.w3.org/2000/svg" viewBox="0 0 900 560">
<rect width="900" height="560" rx="28" fill="#071426"/>
<text x="55" y="78" fill="#fff" font-family="Arial" font-size="36" font-weight="700">Line Follower Robot</text>
<text x="55" y="112" fill="#9ec9ff" font-family="Arial" font-size="18">Arduino • IR sensors • Motor control</text>
<rect x="55" y="150" width="790" height="340" rx="22" fill="#0b2038" stroke="#24517e"/>
<path d="M140 420 C180 260 300 225 390 315 S560 445 650 280 S750 210 790 180" fill="none" stroke="#111827" stroke-width="38"/>
<path d="M140 420 C180 260 300 225 390 315 S560 445 650 280 S750 210 790 180" fill="none" stroke="#60a5fa" stroke-width="4" stroke-dasharray="10 12"/>
<rect x="365" y="290" width="150" height="78" rx="18" fill="#173a5d" stroke="#64b5f6" stroke-width="4"/>
<circle cx="395" cy="370" r="25" fill="#0e1e30" stroke="#90caf9" stroke-width="6"/><circle cx="485" cy="370" r="25" fill="#0e1e30" stroke="#90caf9" stroke-width="6"/>
<rect x="390" y="255" width="100" height="20" rx="8" fill="#42a5f5"/>
<text x="110" y="205" fill="#d8efff" font-family="Arial" font-size="19" font-weight="700">IR sensors</text>
<text x="110" y="232" fill="#9ec9ff" font-family="Arial" font-size="16">detect path → control motors</text>
</svg>